<svg id="Group_307867" data-name="Group 307867" xmlns="http://www.w3.org/2000/svg" xmlns:xlink="http://www.w3.org/1999/xlink" width="112" height="112" viewBox="0 0 112 112">
  <rect id="Rectangle_298715" data-name="Rectangle 298715" width="112" height="112" fill="none"/>
  <g id="Group_307850" data-name="Group 307850" transform="translate(10 5)">
    <g id="Group_307849" data-name="Group 307849">
      <path id="Path_88150" data-name="Path 88150" d="M212.376,11.853a2.371,2.371,0,0,0,2.37-2.37V2.37a2.371,2.371,0,0,0-4.742,0V9.483a2.371,2.371,0,0,0,2.372,2.37" transform="translate(-167.327 0)" fill="#f8f7f4"/>
      <path id="Path_88151" data-name="Path 88151" d="M342.555,62.2a2.371,2.371,0,0,0-3.353,0h0l-5.028,5.031a2.371,2.371,0,0,0,3.213,3.487q.071-.066.137-.137l5.031-5.031a2.371,2.371,0,0,0,0-3.35Z" transform="translate(-265.654 -49.004)" fill="#f8f7f4"/>
      <path id="Path_88152" data-name="Path 88152" d="M394.487,209.995h-7.113a2.371,2.371,0,0,0,0,4.742h7.113a2.37,2.37,0,0,0,2.372-2.369h0a2.372,2.372,0,0,0-2.372-2.372" transform="translate(-306.763 -167.32)" fill="#f8f7f4"/>
      <path id="Path_88153" data-name="Path 88153" d="M70.585,70.582h0a2.371,2.371,0,0,0,0-3.353h0L65.555,62.2A2.371,2.371,0,1,0,62.2,65.553l5.031,5.029a2.371,2.371,0,0,0,3.353,0" transform="translate(-49.008 -49.006)" fill="#f8f7f4"/>
      <path id="Path_88154" data-name="Path 88154" d="M9.484,209.995H2.372A2.371,2.371,0,0,0,0,212.366H0a2.37,2.37,0,0,0,2.37,2.37H9.484a2.371,2.371,0,0,0,0-4.742" transform="translate(0 -167.32)" fill="#f8f7f4"/>
      <path id="Path_88155" data-name="Path 88155" d="M105.414,69.816a6.231,6.231,0,0,0-.666.031c-.837.019-1.672.057-2.561.149-.785.088-1.565.209-2.312.358a29.606,29.606,0,0,0-9.768,54.415,2.3,2.3,0,0,1,1.107,1.977l.016,2.343H88.86a2.371,2.371,0,0,0,0,4.742h2.371V136.2a2.371,2.371,0,0,0-.076,4.741h.076v2.371a11.868,11.868,0,0,0,11.855,11.854h4.742a11.868,11.868,0,0,0,11.854-11.854v-2.372a2.371,2.371,0,0,0,0-4.742h0V133.83h2.372a2.371,2.371,0,0,0,0-4.742h-2.372v-2.337a2.309,2.309,0,0,1,1.105-1.966h0a30.11,30.11,0,0,0,11.1-39.254,27.529,27.529,0,0,0-26.469-15.715m2.414,80.611h-4.742a7.115,7.115,0,0,1-7.113-7.113v-2.372H114.94v2.372a7.115,7.115,0,0,1-7.113,7.113M114.94,136.2H95.973V133.83h9.164a.828.828,0,0,0,.64,0h9.163Zm3.388-15.476a7.084,7.084,0,0,0-3.371,6l-.017,2.359h-7.113v-9.7a14.172,14.172,0,0,0,6.164-2.634,2.371,2.371,0,1,0-2.845-3.794,9.481,9.481,0,0,1-11.38,0,2.371,2.371,0,1,0-2.845,3.794,14.544,14.544,0,0,0,6.164,2.629v9.7H95.972v-2.36a7.11,7.11,0,0,0-3.391-6.012,24.712,24.712,0,0,1-12.02-21.265h0A24.906,24.906,0,0,1,100.785,75.01a19.484,19.484,0,0,1,1.98-.3c.7-.067,1.389-.1,2.093-.118l.382-.019-.161-2.371.5,2.352a22.8,22.8,0,0,1,22.009,12.983,25.146,25.146,0,0,1-9.257,33.192" transform="translate(-60.408 -55.591)" fill="#f8f7f4"/>
    </g>
  </g>
</svg>
