<svg id="Group_307868" data-name="Group 307868" xmlns="http://www.w3.org/2000/svg" xmlns:xlink="http://www.w3.org/1999/xlink" width="112" height="112" viewBox="0 0 112 112">
  <rect id="Rectangle_298718" data-name="Rectangle 298718" width="112" height="112" fill="#f8f7f4" opacity="0"/>
  <g id="Group_307852" data-name="Group 307852" transform="translate(10 9)">
    <g id="Group_307851" data-name="Group 307851">
      <path id="Path_88156" data-name="Path 88156" d="M187.384,93.33H156.132a4.465,4.465,0,0,0-4.464,4.465h0v13.394a4.465,4.465,0,0,0,4.464,4.465h31.252a4.466,4.466,0,0,0,4.465-4.464V97.8a4.466,4.466,0,0,0-4.465-4.465m0,17.859H156.132V97.8h31.252Z" transform="translate(-122.648 -75.472)" fill="#f8f7f4"/>
      <path id="Path_88157" data-name="Path 88157" d="M84.827,0H20.091a8.929,8.929,0,0,0-8.929,8.928h0v4.464H6.7a6.7,6.7,0,1,0,0,13.394h4.464v4.464H6.7a6.7,6.7,0,0,0,0,13.394h4.464V49.11H6.7A6.7,6.7,0,1,0,6.7,62.5h4.464v4.465H6.7a6.7,6.7,0,0,0,0,13.394h4.464v4.464a8.929,8.929,0,0,0,8.929,8.929H84.827a6.7,6.7,0,0,0,6.7-6.7V6.7a6.7,6.7,0,0,0-6.7-6.7M11.161,75.9H6.7a2.233,2.233,0,0,1,0-4.465h4.466Zm0-17.857H6.7a2.232,2.232,0,1,1,0-4.464h4.465Zm0-17.858H6.7a2.232,2.232,0,0,1,0-4.464h4.465Zm0-17.859H6.7a2.233,2.233,0,0,1,0-4.465h4.466ZM78.13,8.93v75.9a4.465,4.465,0,0,1-4.464,4.465H20.091a4.465,4.465,0,0,1-4.464-4.465h0V71.433h2.232a2.232,2.232,0,1,0,0-4.464H15.626V53.575h2.232a2.232,2.232,0,0,0,0-4.464H15.626V35.717h2.232a2.233,2.233,0,0,0,0-4.465H15.626V17.858h2.232a2.232,2.232,0,1,0,0-4.464H15.626V8.93A4.465,4.465,0,0,1,20.09,4.465H73.666A4.465,4.465,0,0,1,78.13,8.929ZM87.06,87.06a2.233,2.233,0,0,1-2.233,2.233H81.354A8.844,8.844,0,0,0,82.6,84.827V8.931a8.844,8.844,0,0,0-1.241-4.465h3.473A2.233,2.233,0,0,1,87.06,6.7Z" transform="translate(0 0)" fill="#f8f7f4"/>
    </g>
  </g>
</svg>
