<svg id="Group_307871" data-name="Group 307871" xmlns="http://www.w3.org/2000/svg" xmlns:xlink="http://www.w3.org/1999/xlink" width="112" height="112" viewBox="0 0 112 112">
  <rect id="Rectangle_298720" data-name="Rectangle 298720" width="112" height="112" fill="#f8f7f4" opacity="0"/>
  <g id="Group_307856" data-name="Group 307856" transform="translate(7 19)">
    <g id="Group_307855" data-name="Group 307855">
      <path id="Path_88162" data-name="Path 88162" d="M81.058,0H16.212A16.23,16.23,0,0,0,0,16.212V57.9A16.23,16.23,0,0,0,16.212,74.111H81.058A16.23,16.23,0,0,0,97.271,57.9V16.212A16.23,16.23,0,0,0,81.058,0m11.58,57.9a11.593,11.593,0,0,1-11.58,11.58H16.213A11.593,11.593,0,0,1,4.632,57.9V16.212a11.593,11.593,0,0,1,11.58-11.58H81.058a11.593,11.593,0,0,1,11.58,11.58Z" fill="#f8f7f4"/>
      <path id="Path_88163" data-name="Path 88163" d="M135.911,105.367H135.9l-27.345,17.62a6.951,6.951,0,0,1-7.511,0l-10.1-6.485c-.014,0-.021-.028-.037-.04s-.056-.019-.081-.037L73.56,105.364a2.317,2.317,0,0,0-2.5,3.9l15.2,9.746-8.879,12.434a2.316,2.316,0,0,0,3.662,2.837q.054-.071.1-.145l9.018-12.622,8.386,5.38a11.6,11.6,0,0,0,12.522-.014l7.1-4.571,10.285,11.99a2.316,2.316,0,0,0,3.516-3.011L122.1,119.774l16.318-10.512a2.317,2.317,0,1,0-2.51-3.9" transform="translate(-56.098 -84.154)" fill="#f8f7f4"/>
    </g>
  </g>
</svg>
