<svg id="Group_307863" data-name="Group 307863" xmlns="http://www.w3.org/2000/svg" xmlns:xlink="http://www.w3.org/1999/xlink" width="112" height="112" viewBox="0 0 112 112">
  <rect id="Rectangle_298717" data-name="Rectangle 298717" width="112" height="112" fill="#f8f7f4" opacity="0"/>
  <g id="Group_307858" data-name="Group 307858" transform="translate(15 15)">
    <g id="Group_307857" data-name="Group 307857">
      <path id="Path_88164" data-name="Path 88164" d="M71.814,17.468H69.872V5.823A5.823,5.823,0,0,0,64.05,0H17.468a5.823,5.823,0,0,0-5.823,5.823V17.468H9.7a9.715,9.715,0,0,0-9.7,9.7V56.286a9.716,9.716,0,0,0,9.7,9.7h3.624l-1.4,11.162a3.882,3.882,0,0,0,3.853,4.365H65.733a3.882,3.882,0,0,0,3.853-4.363l-1.4-11.164h3.624a9.716,9.716,0,0,0,9.7-9.7V27.172a9.715,9.715,0,0,0-9.7-9.7M15.527,5.823a1.942,1.942,0,0,1,1.941-1.941H64.05A1.941,1.941,0,0,1,65.99,5.823V17.468H15.526Zm.258,71.814,3.4-27.172H62.336l3.4,27.172ZM77.637,56.285a5.823,5.823,0,0,1-5.823,5.823H67.7L66.249,50.463h3.623a1.941,1.941,0,0,0,.051-3.881H11.645a1.941,1.941,0,1,0,0,3.882h3.624L13.813,62.108H9.7a5.823,5.823,0,0,1-5.823-5.823V27.172A5.824,5.824,0,0,1,9.7,21.35h62.11a5.824,5.824,0,0,1,5.823,5.823Z" transform="translate(0.241 0.241)" fill="#f8f7f4"/>
      <path id="Path_88165" data-name="Path 88165" d="M77.767,175H71.944a1.941,1.941,0,0,0,0,3.882h5.823a1.941,1.941,0,0,0,0-3.882" transform="translate(-58.116 -145.645)" fill="#f8f7f4"/>
      <path id="Path_88166" data-name="Path 88166" d="M387.911,174.376c-1.607,0-2.911-.637-2.911.97a2.911,2.911,0,1,0,5.823,0c0-1.607-1.3-.97-2.911-.97" transform="translate(-320.709 -145.022)" fill="#f8f7f4"/>
      <path id="Path_88167" data-name="Path 88167" d="M329.581,174.376c-1.607,0-2.911-.637-2.911.97a2.911,2.911,0,0,0,5.823,0c0-1.607-1.3-.97-2.911-.97" transform="translate(-272.083 -145.022)" fill="#f8f7f4"/>
    </g>
  </g>
</svg>
