<?xml version="1.0" encoding="UTF-8"?>
<svg xmlns="http://www.w3.org/2000/svg" onmouseup="{ if(window.parent.document.onmouseup) window.parent.document.onmouseup(arguments[0]);}" viewBox="0 0 112 112" height="112" width="112" data-name="Group 307870" id="Group_307870" xmlns:xlink="http://www.w3.org/1999/xlink"><rect data-cppathid="10000" opacity="0" fill="#f8f7f4" height="112" width="112" data-name="Rectangle 298719" id="Rectangle_298719"/><g transform="translate(8 13)" data-name="Group 307854" id="Group_307854"><g data-name="Group 307853" id="Group_307853"><path data-cppathid="10001" fill="#f8f7f4" transform="translate(0 0)" d="M86.253,71.1A33.2,33.2,0,0,0,66.534,18.442l0,.008A35.436,35.436,0,1,0,7.949,57.8L6.66,70.7a2.215,2.215,0,0,0,3.1,2.246l11.4-5.069A35.056,35.056,0,0,0,33.237,70.8,33.066,33.066,0,0,0,75,80.521L85.71,84.1a2.216,2.216,0,0,0,2.863-2.585ZM22.121,63.451a2.213,2.213,0,0,0-1.846-.031v.008l-8.827,3.921,1-10.033a2.212,2.212,0,0,0-.523-1.663,31.191,31.191,0,1,1,10.192,7.8m59.583,7.6,1.7,7.606-7.9-2.647a2.232,2.232,0,0,0-1.773.164,28.632,28.632,0,0,1-34.785-5.439A35.343,35.343,0,0,0,68.83,23.63,28.772,28.772,0,0,1,82.148,69.158v.008a2.216,2.216,0,0,0-.444,1.886" data-name="Path 88158" id="Path_88158"/><path data-cppathid="10002" fill="#f8f7f4" transform="translate(-113.418 -85.121)" d="M142.223,109.508h19.943a2.216,2.216,0,0,0,0-4.432H142.225a2.216,2.216,0,1,0,0,4.432" data-name="Path 88159" id="Path_88159"/><path data-cppathid="10003" fill="#f8f7f4" transform="translate(-75.617 -132.376)" d="M124.364,163.41H95.56a2.216,2.216,0,1,0,0,4.431h28.8a2.216,2.216,0,0,0,0-4.431" data-name="Path 88160" id="Path_88160"/><path data-cppathid="10004" fill="#f8f7f4" transform="translate(-75.617 -179.63)" d="M113.285,221.742H95.56a2.216,2.216,0,0,0,0,4.431h17.725a2.215,2.215,0,0,0,2.216-2.214h0a2.216,2.216,0,0,0-2.216-2.216" data-name="Path 88161" id="Path_88161"/></g></g></svg>