<?xml version="1.0" encoding="UTF-8"?>
<svg xmlns="http://www.w3.org/2000/svg" onmouseup="{ if(window.parent.document.onmouseup) window.parent.document.onmouseup(arguments[0]);}" viewBox="0 0 112 112" height="112" width="112" data-name="Group 307876" id="Group_307876" xmlns:xlink="http://www.w3.org/1999/xlink"><rect data-cppathid="10000" opacity="0" fill="#f8f7f4" height="112" width="112" data-name="Rectangle 298716" id="Rectangle_298716"/><g transform="translate(13.028 14.885)" data-name="Group 307860" id="Group_307860"><g data-name="Group 307859" id="Group_307859"><path data-cppathid="10001" fill="#f8f7f4" d="M71.285,12.22h0V10.183A10.2,10.2,0,0,0,61.1,0H24.441A10.2,10.2,0,0,0,14.257,10.183V12.22A14.272,14.272,0,0,0,0,26.477V67.213A14.272,14.272,0,0,0,14.257,81.47H71.285A14.272,14.272,0,0,0,85.543,67.213V26.477A14.272,14.272,0,0,0,71.285,12.22M18.331,10.183a6.11,6.11,0,0,1,6.11-6.11H61.1a6.11,6.11,0,0,1,6.11,6.11V12.22H18.331ZM4.073,26.478A10.2,10.2,0,0,1,14.257,16.293H71.285A10.2,10.2,0,0,1,81.469,26.477v6.159a6.071,6.071,0,0,1-4.355,5.858L46.869,47.569a14.247,14.247,0,0,1-8.2,0L8.428,38.494a6.071,6.071,0,0,1-4.355-5.858ZM22.4,77.4H14.257A10.2,10.2,0,0,1,4.073,67.212h0V40.773A10.261,10.261,0,0,0,7.257,42.39L22.4,46.934Zm36.662,0H26.479V48.157L37.5,51.466a18.314,18.314,0,0,0,10.535,0l11.026-3.31Zm22.4-10.182A10.2,10.2,0,0,1,71.286,77.4v0H63.139V46.935l15.147-4.544a10.261,10.261,0,0,0,3.183-1.617Z" data-name="Path 88168" id="Path_88168"/><path data-cppathid="10002" fill="#f8f7f4" transform="translate(-182.968 -144.447)" d="M225.739,183.145a4.073,4.073,0,0,0,0-8.147h0a4.073,4.073,0,1,0,0,8.147" data-name="Path 88169" id="Path_88169"/></g></g></svg>